<mxfile host="app.diagrams.net" modified="2024-02-02T18:00:08.337Z" agent="Mozilla/5.0 (X11; Linux x86_64; rv:109.0) Gecko/20100101 Firefox/114.0" etag="5E_Rf5oh_pRXxaR1hak4" version="23.1.1" type="device">
  <diagram name="Página-1" id="Rganr19uKsDzd_jjGSZs">
    <mxGraphModel dx="2868" dy="1578" grid="1" gridSize="10" guides="1" tooltips="1" connect="1" arrows="1" fold="1" page="1" pageScale="1" pageWidth="1169" pageHeight="827" background="#CCFFFF" math="0" shadow="0">
      <root>
        <mxCell id="0" />
        <mxCell id="1" parent="0" />
        <mxCell id="a1O-umeRUMWwYTT1bDma-7" style="edgeStyle=orthogonalEdgeStyle;rounded=0;orthogonalLoop=1;jettySize=auto;html=1;exitX=1;exitY=0.5;exitDx=0;exitDy=0;entryX=0;entryY=0.5;entryDx=0;entryDy=0;" edge="1" parent="1" source="KhnNNgycjfnA8WjDQx8Y-1" target="a1O-umeRUMWwYTT1bDma-2">
          <mxGeometry relative="1" as="geometry" />
        </mxCell>
        <mxCell id="KhnNNgycjfnA8WjDQx8Y-1" value="&lt;div&gt;Introducir nombre usuario válido&lt;/div&gt;" style="rounded=1;whiteSpace=wrap;html=1;" parent="1" vertex="1">
          <mxGeometry x="320" y="200" width="120" height="60" as="geometry" />
        </mxCell>
        <mxCell id="a1O-umeRUMWwYTT1bDma-13" style="edgeStyle=orthogonalEdgeStyle;rounded=0;orthogonalLoop=1;jettySize=auto;html=1;exitX=1;exitY=0.5;exitDx=0;exitDy=0;" edge="1" parent="1" source="KhnNNgycjfnA8WjDQx8Y-6" target="KhnNNgycjfnA8WjDQx8Y-1">
          <mxGeometry relative="1" as="geometry" />
        </mxCell>
        <mxCell id="KhnNNgycjfnA8WjDQx8Y-6" value="" style="ellipse;whiteSpace=wrap;html=1;aspect=fixed;fillColor=#FFFFFF;fillStyle=auto;gradientColor=#000000;gradientDirection=radial;" parent="1" vertex="1">
          <mxGeometry x="200" y="210" width="40" height="40" as="geometry" />
        </mxCell>
        <mxCell id="KhnNNgycjfnA8WjDQx8Y-18" value="" style="ellipse;shape=doubleEllipse;whiteSpace=wrap;html=1;aspect=fixed;gradientColor=#FFFFFF;gradientDirection=radial;fillColor=#000000;" parent="1" vertex="1">
          <mxGeometry x="880" y="1210" width="40" height="40" as="geometry" />
        </mxCell>
        <mxCell id="a1O-umeRUMWwYTT1bDma-8" style="edgeStyle=orthogonalEdgeStyle;rounded=0;orthogonalLoop=1;jettySize=auto;html=1;exitX=0.5;exitY=1;exitDx=0;exitDy=0;" edge="1" parent="1" source="a1O-umeRUMWwYTT1bDma-2" target="a1O-umeRUMWwYTT1bDma-3">
          <mxGeometry relative="1" as="geometry" />
        </mxCell>
        <mxCell id="a1O-umeRUMWwYTT1bDma-2" value="&lt;div&gt;Comprobar criterios validez&lt;/div&gt;" style="rounded=1;whiteSpace=wrap;html=1;" vertex="1" parent="1">
          <mxGeometry x="840" y="200" width="120" height="60" as="geometry" />
        </mxCell>
        <mxCell id="a1O-umeRUMWwYTT1bDma-9" style="edgeStyle=orthogonalEdgeStyle;rounded=0;orthogonalLoop=1;jettySize=auto;html=1;exitX=0;exitY=0.5;exitDx=0;exitDy=0;" edge="1" parent="1" source="a1O-umeRUMWwYTT1bDma-3" target="a1O-umeRUMWwYTT1bDma-6">
          <mxGeometry relative="1" as="geometry" />
        </mxCell>
        <mxCell id="a1O-umeRUMWwYTT1bDma-14" style="edgeStyle=orthogonalEdgeStyle;rounded=0;orthogonalLoop=1;jettySize=auto;html=1;exitX=0.5;exitY=1;exitDx=0;exitDy=0;entryX=0.5;entryY=0;entryDx=0;entryDy=0;" edge="1" parent="1" source="a1O-umeRUMWwYTT1bDma-3" target="a1O-umeRUMWwYTT1bDma-11">
          <mxGeometry relative="1" as="geometry" />
        </mxCell>
        <mxCell id="a1O-umeRUMWwYTT1bDma-3" value="&lt;font style=&quot;font-size: 7px;&quot;&gt;¿Son válidos los criterios?&lt;/font&gt;" style="rhombus;whiteSpace=wrap;html=1;" vertex="1" parent="1">
          <mxGeometry x="860" y="320" width="80" height="70" as="geometry" />
        </mxCell>
        <mxCell id="a1O-umeRUMWwYTT1bDma-4" value="Si" style="text;html=1;align=center;verticalAlign=middle;resizable=0;points=[];autosize=1;strokeColor=none;fillColor=none;" vertex="1" parent="1">
          <mxGeometry x="900" y="390" width="30" height="30" as="geometry" />
        </mxCell>
        <mxCell id="a1O-umeRUMWwYTT1bDma-5" value="No" style="text;html=1;strokeColor=none;fillColor=none;align=center;verticalAlign=middle;whiteSpace=wrap;rounded=0;" vertex="1" parent="1">
          <mxGeometry x="820" y="330" width="60" height="30" as="geometry" />
        </mxCell>
        <mxCell id="a1O-umeRUMWwYTT1bDma-12" style="edgeStyle=orthogonalEdgeStyle;rounded=0;orthogonalLoop=1;jettySize=auto;html=1;exitX=0;exitY=0.5;exitDx=0;exitDy=0;" edge="1" parent="1" source="a1O-umeRUMWwYTT1bDma-6" target="KhnNNgycjfnA8WjDQx8Y-1">
          <mxGeometry relative="1" as="geometry" />
        </mxCell>
        <mxCell id="a1O-umeRUMWwYTT1bDma-6" value="&lt;div style=&quot;font-size: 11px;&quot;&gt;&lt;font style=&quot;font-size: 10px;&quot;&gt;Mensaje de informe de error&lt;/font&gt;&lt;/div&gt;" style="rounded=1;whiteSpace=wrap;html=1;" vertex="1" parent="1">
          <mxGeometry x="600" y="325" width="120" height="60" as="geometry" />
        </mxCell>
        <mxCell id="a1O-umeRUMWwYTT1bDma-16" style="edgeStyle=orthogonalEdgeStyle;rounded=0;orthogonalLoop=1;jettySize=auto;html=1;exitX=1;exitY=0.5;exitDx=0;exitDy=0;" edge="1" parent="1" source="a1O-umeRUMWwYTT1bDma-11" target="a1O-umeRUMWwYTT1bDma-15">
          <mxGeometry relative="1" as="geometry" />
        </mxCell>
        <mxCell id="a1O-umeRUMWwYTT1bDma-11" value="&lt;div&gt;Introducir contraseña usuario válido&lt;/div&gt;" style="rounded=1;whiteSpace=wrap;html=1;" vertex="1" parent="1">
          <mxGeometry x="320" y="450" width="120" height="60" as="geometry" />
        </mxCell>
        <mxCell id="a1O-umeRUMWwYTT1bDma-18" style="edgeStyle=orthogonalEdgeStyle;rounded=0;orthogonalLoop=1;jettySize=auto;html=1;exitX=0.5;exitY=1;exitDx=0;exitDy=0;entryX=0.5;entryY=0;entryDx=0;entryDy=0;" edge="1" parent="1" source="a1O-umeRUMWwYTT1bDma-15" target="a1O-umeRUMWwYTT1bDma-17">
          <mxGeometry relative="1" as="geometry" />
        </mxCell>
        <mxCell id="a1O-umeRUMWwYTT1bDma-15" value="&lt;div&gt;Comprobar contraseña valida&lt;/div&gt;" style="rounded=1;whiteSpace=wrap;html=1;" vertex="1" parent="1">
          <mxGeometry x="840" y="450" width="120" height="60" as="geometry" />
        </mxCell>
        <mxCell id="a1O-umeRUMWwYTT1bDma-22" style="edgeStyle=orthogonalEdgeStyle;rounded=0;orthogonalLoop=1;jettySize=auto;html=1;exitX=0;exitY=0.5;exitDx=0;exitDy=0;entryX=1;entryY=0.5;entryDx=0;entryDy=0;" edge="1" parent="1" source="a1O-umeRUMWwYTT1bDma-17" target="a1O-umeRUMWwYTT1bDma-21">
          <mxGeometry relative="1" as="geometry" />
        </mxCell>
        <mxCell id="a1O-umeRUMWwYTT1bDma-25" style="edgeStyle=orthogonalEdgeStyle;rounded=0;orthogonalLoop=1;jettySize=auto;html=1;exitX=0.5;exitY=1;exitDx=0;exitDy=0;" edge="1" parent="1" source="a1O-umeRUMWwYTT1bDma-17" target="a1O-umeRUMWwYTT1bDma-24">
          <mxGeometry relative="1" as="geometry" />
        </mxCell>
        <mxCell id="a1O-umeRUMWwYTT1bDma-17" value="&lt;font style=&quot;font-size: 7px;&quot;&gt;¿Es válida la contraseña?&lt;/font&gt;" style="rhombus;whiteSpace=wrap;html=1;" vertex="1" parent="1">
          <mxGeometry x="860" y="570" width="80" height="70" as="geometry" />
        </mxCell>
        <mxCell id="a1O-umeRUMWwYTT1bDma-19" value="Si" style="text;html=1;align=center;verticalAlign=middle;resizable=0;points=[];autosize=1;strokeColor=none;fillColor=none;" vertex="1" parent="1">
          <mxGeometry x="900" y="865" width="30" height="30" as="geometry" />
        </mxCell>
        <mxCell id="a1O-umeRUMWwYTT1bDma-20" value="No" style="text;html=1;strokeColor=none;fillColor=none;align=center;verticalAlign=middle;whiteSpace=wrap;rounded=0;" vertex="1" parent="1">
          <mxGeometry x="830" y="584" width="40" height="16" as="geometry" />
        </mxCell>
        <mxCell id="a1O-umeRUMWwYTT1bDma-21" value="&lt;div style=&quot;font-size: 11px;&quot;&gt;&lt;font style=&quot;font-size: 10px;&quot;&gt;Mensaje de informe de error&lt;/font&gt;&lt;/div&gt;" style="rounded=1;whiteSpace=wrap;html=1;" vertex="1" parent="1">
          <mxGeometry x="605" y="575" width="120" height="60" as="geometry" />
        </mxCell>
        <mxCell id="a1O-umeRUMWwYTT1bDma-23" style="edgeStyle=orthogonalEdgeStyle;rounded=0;orthogonalLoop=1;jettySize=auto;html=1;exitX=0;exitY=0.5;exitDx=0;exitDy=0;entryX=0.533;entryY=0.967;entryDx=0;entryDy=0;entryPerimeter=0;" edge="1" parent="1" source="a1O-umeRUMWwYTT1bDma-21" target="a1O-umeRUMWwYTT1bDma-11">
          <mxGeometry relative="1" as="geometry" />
        </mxCell>
        <mxCell id="a1O-umeRUMWwYTT1bDma-27" style="edgeStyle=orthogonalEdgeStyle;rounded=0;orthogonalLoop=1;jettySize=auto;html=1;exitX=1;exitY=0.5;exitDx=0;exitDy=0;entryX=0;entryY=0.5;entryDx=0;entryDy=0;" edge="1" parent="1" source="a1O-umeRUMWwYTT1bDma-24" target="a1O-umeRUMWwYTT1bDma-26">
          <mxGeometry relative="1" as="geometry" />
        </mxCell>
        <mxCell id="a1O-umeRUMWwYTT1bDma-24" value="Volver a&lt;br&gt;&lt;div&gt;introducir la contraseña&lt;/div&gt;" style="rounded=1;whiteSpace=wrap;html=1;" vertex="1" parent="1">
          <mxGeometry x="320" y="700" width="120" height="60" as="geometry" />
        </mxCell>
        <mxCell id="a1O-umeRUMWwYTT1bDma-29" style="edgeStyle=orthogonalEdgeStyle;rounded=0;orthogonalLoop=1;jettySize=auto;html=1;exitX=0.5;exitY=1;exitDx=0;exitDy=0;" edge="1" parent="1" source="a1O-umeRUMWwYTT1bDma-26" target="a1O-umeRUMWwYTT1bDma-28">
          <mxGeometry relative="1" as="geometry" />
        </mxCell>
        <mxCell id="a1O-umeRUMWwYTT1bDma-26" value="Segunda &lt;br&gt;&lt;div&gt;comprobación de contraseña&lt;/div&gt;" style="rounded=1;whiteSpace=wrap;html=1;" vertex="1" parent="1">
          <mxGeometry x="840" y="700" width="120" height="60" as="geometry" />
        </mxCell>
        <mxCell id="a1O-umeRUMWwYTT1bDma-31" style="edgeStyle=orthogonalEdgeStyle;rounded=0;orthogonalLoop=1;jettySize=auto;html=1;exitX=0;exitY=0.5;exitDx=0;exitDy=0;entryX=1;entryY=0.5;entryDx=0;entryDy=0;" edge="1" parent="1" source="a1O-umeRUMWwYTT1bDma-28" target="a1O-umeRUMWwYTT1bDma-30">
          <mxGeometry relative="1" as="geometry" />
        </mxCell>
        <mxCell id="a1O-umeRUMWwYTT1bDma-34" style="edgeStyle=orthogonalEdgeStyle;rounded=0;orthogonalLoop=1;jettySize=auto;html=1;exitX=0.5;exitY=1;exitDx=0;exitDy=0;entryX=0.5;entryY=0;entryDx=0;entryDy=0;" edge="1" parent="1" source="a1O-umeRUMWwYTT1bDma-28" target="a1O-umeRUMWwYTT1bDma-35">
          <mxGeometry relative="1" as="geometry">
            <mxPoint x="900" y="950" as="targetPoint" />
          </mxGeometry>
        </mxCell>
        <mxCell id="a1O-umeRUMWwYTT1bDma-28" value="&lt;div&gt;&lt;font style=&quot;font-size: 7px;&quot;&gt;¿Coincide con&lt;/font&gt;&lt;/div&gt;&lt;div&gt;&lt;font style=&quot;font-size: 7px;&quot;&gt;la anterior &lt;br&gt;&lt;/font&gt;&lt;/div&gt;&lt;div&gt;&lt;font style=&quot;font-size: 7px;&quot;&gt;&amp;nbsp;contraseña?&lt;/font&gt;&lt;/div&gt;" style="rhombus;whiteSpace=wrap;html=1;" vertex="1" parent="1">
          <mxGeometry x="860" y="800" width="80" height="70" as="geometry" />
        </mxCell>
        <mxCell id="a1O-umeRUMWwYTT1bDma-32" style="edgeStyle=orthogonalEdgeStyle;rounded=0;orthogonalLoop=1;jettySize=auto;html=1;exitX=0;exitY=0.5;exitDx=0;exitDy=0;entryX=0.5;entryY=1;entryDx=0;entryDy=0;" edge="1" parent="1" source="a1O-umeRUMWwYTT1bDma-30" target="a1O-umeRUMWwYTT1bDma-24">
          <mxGeometry relative="1" as="geometry" />
        </mxCell>
        <mxCell id="a1O-umeRUMWwYTT1bDma-30" value="&lt;div style=&quot;font-size: 11px;&quot;&gt;&lt;font style=&quot;font-size: 10px;&quot;&gt;Mensaje de informe de error&lt;/font&gt;&lt;/div&gt;" style="rounded=1;whiteSpace=wrap;html=1;" vertex="1" parent="1">
          <mxGeometry x="600" y="805" width="120" height="60" as="geometry" />
        </mxCell>
        <mxCell id="a1O-umeRUMWwYTT1bDma-33" value="No" style="text;html=1;strokeColor=none;fillColor=none;align=center;verticalAlign=middle;whiteSpace=wrap;rounded=0;" vertex="1" parent="1">
          <mxGeometry x="830" y="820" width="40" height="16" as="geometry" />
        </mxCell>
        <mxCell id="a1O-umeRUMWwYTT1bDma-37" style="edgeStyle=orthogonalEdgeStyle;rounded=0;orthogonalLoop=1;jettySize=auto;html=1;exitX=1;exitY=0.5;exitDx=0;exitDy=0;entryX=0;entryY=0.5;entryDx=0;entryDy=0;" edge="1" parent="1" source="a1O-umeRUMWwYTT1bDma-35" target="a1O-umeRUMWwYTT1bDma-36">
          <mxGeometry relative="1" as="geometry" />
        </mxCell>
        <mxCell id="a1O-umeRUMWwYTT1bDma-35" value="Introducir resto de datos" style="rounded=1;whiteSpace=wrap;html=1;" vertex="1" parent="1">
          <mxGeometry x="320" y="950" width="120" height="60" as="geometry" />
        </mxCell>
        <mxCell id="a1O-umeRUMWwYTT1bDma-40" style="edgeStyle=orthogonalEdgeStyle;rounded=0;orthogonalLoop=1;jettySize=auto;html=1;exitX=0.5;exitY=1;exitDx=0;exitDy=0;" edge="1" parent="1" source="a1O-umeRUMWwYTT1bDma-36" target="a1O-umeRUMWwYTT1bDma-39">
          <mxGeometry relative="1" as="geometry" />
        </mxCell>
        <mxCell id="a1O-umeRUMWwYTT1bDma-36" value="Comprobación validez datos" style="rounded=1;whiteSpace=wrap;html=1;" vertex="1" parent="1">
          <mxGeometry x="840" y="950" width="120" height="60" as="geometry" />
        </mxCell>
        <mxCell id="a1O-umeRUMWwYTT1bDma-45" style="edgeStyle=orthogonalEdgeStyle;rounded=0;orthogonalLoop=1;jettySize=auto;html=1;exitX=0;exitY=0.5;exitDx=0;exitDy=0;entryX=0.5;entryY=1;entryDx=0;entryDy=0;" edge="1" parent="1" source="a1O-umeRUMWwYTT1bDma-38" target="a1O-umeRUMWwYTT1bDma-35">
          <mxGeometry relative="1" as="geometry" />
        </mxCell>
        <mxCell id="a1O-umeRUMWwYTT1bDma-38" value="&lt;div style=&quot;font-size: 11px;&quot;&gt;&lt;font style=&quot;font-size: 10px;&quot;&gt;Mensaje de informe de error&lt;/font&gt;&lt;/div&gt;" style="rounded=1;whiteSpace=wrap;html=1;" vertex="1" parent="1">
          <mxGeometry x="600" y="1075" width="120" height="60" as="geometry" />
        </mxCell>
        <mxCell id="a1O-umeRUMWwYTT1bDma-41" style="edgeStyle=orthogonalEdgeStyle;rounded=0;orthogonalLoop=1;jettySize=auto;html=1;exitX=0;exitY=0.5;exitDx=0;exitDy=0;" edge="1" parent="1" source="a1O-umeRUMWwYTT1bDma-39" target="a1O-umeRUMWwYTT1bDma-38">
          <mxGeometry relative="1" as="geometry" />
        </mxCell>
        <mxCell id="a1O-umeRUMWwYTT1bDma-42" style="edgeStyle=orthogonalEdgeStyle;rounded=0;orthogonalLoop=1;jettySize=auto;html=1;exitX=0.5;exitY=1;exitDx=0;exitDy=0;entryX=0.5;entryY=0;entryDx=0;entryDy=0;" edge="1" parent="1" source="a1O-umeRUMWwYTT1bDma-39" target="a1O-umeRUMWwYTT1bDma-46">
          <mxGeometry relative="1" as="geometry">
            <mxPoint x="900" y="1290" as="targetPoint" />
          </mxGeometry>
        </mxCell>
        <mxCell id="a1O-umeRUMWwYTT1bDma-39" value="&lt;div&gt;&lt;font style=&quot;font-size: 7px;&quot;&gt;¿Son correctos los datos?&lt;/font&gt;&lt;/div&gt;" style="rhombus;whiteSpace=wrap;html=1;" vertex="1" parent="1">
          <mxGeometry x="860" y="1070" width="80" height="70" as="geometry" />
        </mxCell>
        <mxCell id="a1O-umeRUMWwYTT1bDma-43" value="Si" style="text;html=1;align=center;verticalAlign=middle;resizable=0;points=[];autosize=1;strokeColor=none;fillColor=none;" vertex="1" parent="1">
          <mxGeometry x="900" y="1135" width="30" height="30" as="geometry" />
        </mxCell>
        <mxCell id="a1O-umeRUMWwYTT1bDma-44" value="No" style="text;html=1;strokeColor=none;fillColor=none;align=center;verticalAlign=middle;whiteSpace=wrap;rounded=0;" vertex="1" parent="1">
          <mxGeometry x="830" y="1090" width="40" height="16" as="geometry" />
        </mxCell>
        <mxCell id="a1O-umeRUMWwYTT1bDma-53" style="edgeStyle=orthogonalEdgeStyle;rounded=0;orthogonalLoop=1;jettySize=auto;html=1;exitX=1;exitY=0.5;exitDx=0;exitDy=0;" edge="1" parent="1" source="a1O-umeRUMWwYTT1bDma-46" target="a1O-umeRUMWwYTT1bDma-50">
          <mxGeometry relative="1" as="geometry" />
        </mxCell>
        <mxCell id="a1O-umeRUMWwYTT1bDma-46" value="Petición confirmación datos" style="rounded=1;whiteSpace=wrap;html=1;" vertex="1" parent="1">
          <mxGeometry x="320" y="1200" width="120" height="60" as="geometry" />
        </mxCell>
        <mxCell id="a1O-umeRUMWwYTT1bDma-54" style="edgeStyle=orthogonalEdgeStyle;rounded=0;orthogonalLoop=1;jettySize=auto;html=1;exitX=1;exitY=0.5;exitDx=0;exitDy=0;entryX=0;entryY=0.5;entryDx=0;entryDy=0;" edge="1" parent="1" source="a1O-umeRUMWwYTT1bDma-50" target="KhnNNgycjfnA8WjDQx8Y-18">
          <mxGeometry relative="1" as="geometry" />
        </mxCell>
        <mxCell id="a1O-umeRUMWwYTT1bDma-50" value="&lt;div&gt;Mensaje registro correcto&lt;/div&gt;" style="rounded=1;whiteSpace=wrap;html=1;" vertex="1" parent="1">
          <mxGeometry x="600" y="1200" width="120" height="60" as="geometry" />
        </mxCell>
        <mxCell id="a1O-umeRUMWwYTT1bDma-56" value="Usuario" style="swimlane;whiteSpace=wrap;html=1;" vertex="1" parent="1">
          <mxGeometry x="160" y="120" width="400" height="1200" as="geometry" />
        </mxCell>
        <mxCell id="a1O-umeRUMWwYTT1bDma-57" value="Sitio Web" style="swimlane;whiteSpace=wrap;html=1;" vertex="1" parent="1">
          <mxGeometry x="560" y="120" width="440" height="1200" as="geometry" />
        </mxCell>
        <mxCell id="a1O-umeRUMWwYTT1bDma-58" value="" style="rounded=0;whiteSpace=wrap;html=1;fillColor=none;" vertex="1" parent="1">
          <mxGeometry x="120" y="80" width="920" height="1280" as="geometry" />
        </mxCell>
      </root>
    </mxGraphModel>
  </diagram>
</mxfile>
